HIERARCHY
ROOT Hips
{
	OFFSET 0.00000 0.00000 0.00000
	CHANNELS 6 Xposition Yposition Zposition Zrotation Yrotation Xrotation 
	JOINT LHipJoint
	{
		OFFSET 0 0 0
		CHANNELS 3 Zrotation Yrotation Xrotation
		JOINT LeftUpLeg
		{
			OFFSET 1.57358 -1.76629 0.73362
			CHANNELS 3 Zrotation Yrotation Xrotation
			JOINT LeftLeg
			{
				OFFSET 2.40600 -6.61045 0.00000
				CHANNELS 3 Zrotation Yrotation Xrotation
				JOINT LeftFoot
				{
					OFFSET 2.66168 -7.31291 0.00000
					CHANNELS 3 Zrotation Yrotation Xrotation
					JOINT LeftToeBase
					{
						OFFSET 0.20870 -0.57341 2.12506
						CHANNELS 3 Zrotation Yrotation Xrotation
						End Site
						{
							OFFSET 0.00000 -0.00000 1.10557
						}
					}
				}
			}
		}
	}
	JOINT RHipJoint
	{
		OFFSET 0 0 0
		CHANNELS 3 Zrotation Yrotation Xrotation
		JOINT RightUpLeg
		{
			OFFSET -1.49299 -1.76629 0.73362
			CHANNELS 3 Zrotation Yrotation Xrotation
			JOINT RightLeg
			{
				OFFSET -2.43663 -6.69460 0.00000
				CHANNELS 3 Zrotation Yrotation Xrotation
				JOINT RightFoot
				{
					OFFSET -2.62959 -7.22474 0.00000
					CHANNELS 3 Zrotation Yrotation Xrotation
					JOINT RightToeBase
					{
						OFFSET -0.25784 -0.70841 2.21862
						CHANNELS 3 Zrotation Yrotation Xrotation
						End Site
						{
							OFFSET -0.00000 -0.00000 1.16452
						}
					}
				}
			}
		}
	}
	JOINT LowerBack
	{
		OFFSET 0 0 0
		CHANNELS 3 Zrotation Yrotation Xrotation
		JOINT Spine
		{
			OFFSET -0.00034 2.12399 -0.25450
			CHANNELS 3 Zrotation Yrotation Xrotation
			JOINT Spine1
			{
				OFFSET 0.05594 2.14379 -0.03318
				CHANNELS 3 Zrotation Yrotation Xrotation
				JOINT Neck
				{
					OFFSET 0 0 0
					CHANNELS 3 Zrotation Yrotation Xrotation
					JOINT Neck1
					{
						OFFSET -0.09835 1.62725 0.24211
						CHANNELS 3 Zrotation Yrotation Xrotation
						JOINT Head
						{
							OFFSET 0.10849 1.66041 -0.22648
							CHANNELS 3 Zrotation Yrotation Xrotation
							End Site
							{
								OFFSET 0.04385 1.68267 -0.10541
							}
						}
					}
				}
				JOINT LeftShoulder
				{
					OFFSET 0 0 0
					CHANNELS 3 Zrotation Yrotation Xrotation
					JOINT LeftArm
					{
						OFFSET 3.29108 0.79398 -0.68179
						CHANNELS 3 Zrotation Yrotation Xrotation
						JOINT LeftForeArm
						{
							OFFSET 5.15310 -0.00000 -0.00000
							CHANNELS 3 Zrotation Yrotation Xrotation
							JOINT LeftHand
							{
								OFFSET 3.75138 -0.00000 -0.00000
								CHANNELS 3 Zrotation Yrotation Xrotation
								JOINT LeftFingerBase
								{
									OFFSET 0 0 0
									CHANNELS 3 Zrotation Yrotation Xrotation
									JOINT LeftHandIndex1
									{
										OFFSET 0.52917 -0.00000 0.00000
										CHANNELS 3 Zrotation Yrotation Xrotation
										End Site
										{
											OFFSET 0.42663 -0.00000 0.00000
										}
									}
								}
								JOINT LThumb
								{
									OFFSET 0 0 0
									CHANNELS 3 Zrotation Yrotation Xrotation
									End Site
									{
										OFFSET 0.43315 -0.00000 0.43315
									}
								}
							}
						}
					}
				}
				JOINT RightShoulder
				{
					OFFSET 0 0 0
					CHANNELS 3 Zrotation Yrotation Xrotation
					JOINT RightArm
					{
						OFFSET -3.07414 1.06285 -0.44338
						CHANNELS 3 Zrotation Yrotation Xrotation
						JOINT RightForeArm
						{
							OFFSET -5.29613 -0.00000 0.00000
							CHANNELS 3 Zrotation Yrotation Xrotation
							JOINT RightHand
							{
								OFFSET -3.76144 -0.00000 -0.00000
								CHANNELS 3 Zrotation Yrotation Xrotation
								JOINT RightFingerBase
								{
									OFFSET 0 0 0
									CHANNELS 3 Zrotation Yrotation Xrotation
									JOINT RightHandIndex1
									{
										OFFSET -0.74732 -0.00000 0.00000
										CHANNELS 3 Zrotation Yrotation Xrotation
										End Site
										{
											OFFSET -0.60251 -0.00000 0.00000
										}
									}
								}
								JOINT RThumb
								{
									OFFSET 0 0 0
									CHANNELS 3 Zrotation Yrotation Xrotation
									End Site
									{
										OFFSET -0.61171 -0.00000 0.61171
									}
								}
							}
						}
					}
				}
			}
		}
	}
}
MOTION
Frames: 8
Frame Time: 0.0740741
0.00 0.00 0.00 0 0 0 0 0 0 -21 0 0 0 0 0 0 0 0 0 0 0 0 0 0 21 0 0 0 0 0 0 0 0 0 0 0 0 0 0 0 0 0 0 0 0 0 0 -16 0 0 21 0 0 11 0 0 0 -8 0 0 0 0 0 0 0 0 0 0 0 0 0 0 0 0 0 0 0 0 8 0 0 0 0 0 0 0 0 0 0 0 0 0 0 0 0 0
0.00 0.00 0.00 14.1651 -7.8502 6.9948 0.0000 0.0000 0.0000 -32.0268 -2.5816 7.2695 4.9160 13.2886 40.4587 1.7794 -1.9798 25.9867 0.0492 -1.4321 -3.9386 0.0000 0.0000 0.0000 6.3417 15.3008 -44.8346 -4.8980 -13.2680 40.3801 -0.0253 -0.3489 -3.1546 -0.7574 5.5582 -15.5079 -6.8872 -1.6525 11.1969 -0.1464 -3.0310 1.5785 4.1609 -1.3939 -4.2695 -8.9954 -1.1690 -19.9958 2.5142 0.4600 9.3852 2.2968 0.0916 6.0537 -0.0000 -0.0000 0.0000 -88.2451 11.0065 38.1746 120.3710 -56.2103 -85.9674 -0.0000 0.0000 -28.6789 14.3299 4.8757 1.2438 -7.1250 0.0000 -0.0000 -10.2036 34.8643 2.5734 -0.0000 -0.0000 0.0000 81.5116 -33.4370 32.1943 -92.8478 59.9693 -62.4660 0.0000 -0.0000 -10.9067 -23.1415 29.2571 -11.7982 7.1250 -0.0000 -0.0000 4.4442 1.2866 4.5565
0.00 0.00 0.00 12.2270 -6.6015 5.1428 0.0000 0.0000 0.0000 -26.9113 -1.7770 -0.0690 9.2506 16.9663 56.9529 1.0068 -0.5568 19.1739 0.5613 -4.7987 -13.3353 0.0000 0.0000 0.0000 13.3516 11.2504 -38.8889 -4.5328 -12.8375 38.7632 -0.0053 -1.8970 -3.1346 -0.1500 -2.4959 6.8783 -5.0557 -1.2322 13.1546 -0.0223 -2.3385 2.2357 3.2254 -1.0741 -4.8111 -9.2824 -1.6409 -18.9322 4.0352 -0.4102 8.0244 2.7326 -0.1919 5.5021 0.0000 0.0000 0.0000 -87.7085 12.7635 37.5141 107.7019 -58.7822 -75.2676 -0.0000 0.0000 -29.9683 15.5503 6.3122 1.7524 -7.1250 0.0000 -0.0000 -9.4099 36.3897 2.0143 0.0000 0.0000 0.0000 83.2596 -29.8679 30.8090 -88.7575 59.9942 -58.9240 0.0000 -0.0000 -10.6812 -23.7601 29.0171 -12.0538 7.1250 -0.0000 -0.0000 4.0502 1.1698 4.1423
0.00 0.00 0.00 8.1634 -7.0679 3.8717 0.0000 0.0000 0.0000 -17.7914 0.3501 -14.4347 13.8002 19.0523 71.5934 0.1945 -2.6840 9.7674 0.3533 -3.8186 -10.5670 0.0000 0.0000 0.0000 22.1108 10.4124 -29.0064 -6.3474 -14.7568 46.3606 -0.4326 -5.2062 -15.4284 -0.1299 -2.3232 6.3998 -1.9823 0.1239 15.3410 0.6706 -0.1211 2.9355 1.8560 -0.0264 -5.4733 -9.6704 -3.5002 -21.5579 4.4201 -2.6121 10.7033 2.6871 -1.2626 6.9474 0.0000 -0.0000 0.0000 -88.7674 13.9155 33.4076 88.2104 -59.9879 -58.4503 -0.0000 0.0000 -27.7235 20.0738 7.0982 2.5855 -7.1250 0.0000 -0.0000 -5.7208 37.4770 1.0634 0.0000 -0.0000 0.0000 83.0534 -23.0119 32.5863 -86.6864 59.9585 -57.1307 0.0000 -0.0000 -8.8503 -22.2313 30.0701 -11.5740 7.1250 -0.0000 -0.0000 5.0848 1.9333 5.2740
0.00 0.00 0.00 4.2174 -3.1678 5.4207 0.0000 0.0000 0.0000 -9.5480 -4.9731 -35.6482 14.6703 19.3049 74.2415 0.1939 -3.4267 -7.8410 0.3919 -4.0199 -11.1327 0.0000 0.0000 0.0000 30.7413 7.3525 -13.3750 -6.2128 -14.6314 45.8299 -1.1103 -8.5694 -24.7293 -0.0615 1.5998 -4.4008 1.0176 0.2503 14.1997 1.5290 0.5915 1.5244 0.9264 0.2805 -6.3580 -10.2923 -4.4547 -18.5951 5.5537 -4.2423 11.2841 2.9883 -2.0158 6.8165 -0.0000 -0.0000 0.0000 -89.6303 23.6001 28.7650 90.0828 -60.0000 -60.0717 -0.0000 0.0000 -28.9899 20.7954 9.0608 3.4226 -7.1250 0.0000 -0.0000 -5.3528 39.6060 0.7140 -0.0000 -0.0000 0.0000 79.1177 -19.2232 39.4615 -103.8470 59.2630 -71.9622 0.0000 -0.0000 -7.5776 -22.2435 29.6973 -11.4539 7.1250 -0.0000 -0.0000 5.0262 1.5527 5.1803
0.00 0.00 0.00 2.8396 -1.5376 6.4254 0.0000 0.0000 0.0000 -6.6457 -9.7600 -43.9479 10.0509 17.4384 59.6584 0.3834 -4.3967 -11.0175 0.0984 -2.0226 -5.5682 0.0000 0.0000 0.0000 35.0246 2.1997 0.2217 -4.0803 -12.2664 36.6812 -0.3523 -9.9457 -18.8758 -0.1326 2.3470 -6.4656 2.5541 1.6233 12.3590 1.1760 2.5716 1.0783 -0.6422 1.2114 -5.7383 -11.8298 -6.8914 -17.9803 7.3622 -7.5606 12.1840 3.4225 -3.5340 7.4172 -0.0000 -0.0000 0.0000 -86.5650 28.1983 31.4939 100.5453 -59.5756 -69.1195 -0.0000 0.0000 -30.8135 15.9167 6.3296 1.8008 -7.1250 0.0000 -0.0000 -9.1078 36.4281 1.9396 -0.0000 -0.0000 0.0000 77.2912 -19.3430 40.4641 -119.8355 56.3536 -85.5220 0.0000 -0.0000 -8.2818 -21.8075 29.7927 -11.2442 7.1250 -0.0000 -0.0000 5.2913 1.5611 5.4566
0.00 0.00 0.00 2.9150 -1.3788 7.4915 0.0000 0.0000 0.0000 -3.1863 -16.9091 -44.9609 5.2569 13.6674 41.9211 0.0501 -2.6028 -4.1067 0.6525 -5.1668 -14.3849 0.0000 0.0000 0.0000 35.1078 -0.9275 10.3993 -2.5101 -9.8562 28.5124 0.2189 -8.4041 -4.7181 -0.0113 0.6866 -1.8869 3.3209 2.7601 9.6862 0.1387 4.0323 0.6470 -2.2528 1.9263 -4.5308 -12.8048 -8.2282 -16.1807 8.9660 -9.6518 12.1387 3.8678 -4.4810 7.4449 -0.0000 -0.0000 0.0000 -83.9539 31.2185 32.6143 108.2396 -58.7049 -75.7272 -0.0000 0.0000 -30.1187 14.5819 5.6188 1.4590 -7.1250 0.0000 -0.0000 -10.1068 35.6310 2.3570 -0.0000 -0.0000 0.0000 76.4841 -19.6870 41.1185 -125.9739 54.4956 -90.5784 0.0000 -0.0000 -7.0515 -20.5347 29.8783 -10.5697 7.1250 -0.0000 -0.0000 6.0384 1.3943 6.2179
0.00 0.00 0.00 2.9383 -9.9703 7.8561 0.0000 0.0000 0.0000 8.1374 -27.4174 -37.6186 1.8810 8.6138 24.5944 0.0762 0.2799 5.1198 1.4471 -7.6044 -21.5187 0.0000 0.0000 0.0000 33.7299 5.0710 16.5960 -4.9962 -13.3795 40.8061 0.0427 -5.8607 2.7385 -0.3268 -3.6745 10.1626 2.6094 5.8209 7.6683 -1.3564 7.9188 0.3207 -3.6454 3.8858 -3.3918 -13.7042 -9.2220 -14.8728 10.8690 -11.3634 12.6593 4.4388 -5.2172 7.7657 -0.0000 -0.0000 0.0000 -83.1066 35.2036 31.1921 121.7016 -55.8392 -87.0708 -0.0000 0.0000 -27.8052 12.7634 5.4168 1.2250 -7.1250 0.0000 -0.0000 -11.5685 35.3350 2.7938 -0.0000 -0.0000 0.0000 76.4516 -18.4689 43.8077 -124.8048 54.8874 -89.6244 0.0000 -0.0000 -7.4858 -19.0168 29.2693 -9.5649 7.1250 -0.0000 -0.0000 6.8459 0.4876 6.9536
